# xmcd
#
# Track frame offsets:
#	150
#	16018
#	34511
#	50614
#	71009
#	91962
#	103383
#	118496
#	135004
#	156164
#
# Disc length: 2306 seconds
#
# Revision: 0
# Processed by: cddbd v1.5.1PL0 Copyright (c) Steve Scherf et al.
# Submitted via: audiograbber 1.83.01
#
DISCID=7f09000a
DTITLE=Strait, George - One Step At A Time - Strait, George - One Step At A Tim
DTITLE=e
DYEAR=1998
DGENRE=Country
TTITLE0=I Just Want To Dance With You
TTITLE1=One Step At A Time
TTITLE2=True
TTITLE3=Remember The Alamo
TTITLE4=Maria
TTITLE5=We Really Shouldn't Be Doing This
TTITLE6=Why Not Now
TTITLE7=That's The Breaks
TTITLE8=Neon Row
TTITLE9=You Haven't Left Me Yet
EXTD=
EXTT0=
EXTT1=
EXTT2=
EXTT3=
EXTT4=
EXTT5=
EXTT6=
EXTT7=
EXTT8=
EXTT9=
PLAYORDER=
